<svg width="16" height="16" viewBox="0 0 16 16" fill="none" xmlns="http://www.w3.org/2000/svg">
<path d="M10.8333 15C11.4777 15 12 14.4776 12 13.8333C12 13.189 11.4777 12.6666 10.8333 12.6666C10.189 12.6666 9.66666 13.189 9.66666 13.8333C9.66666 14.4776 10.189 15 10.8333 15Z" fill="white"/>
<path d="M5.50001 15C6.14434 15 6.66668 14.4776 6.66668 13.8333C6.66668 13.189 6.14434 12.6666 5.50001 12.6666C4.85568 12.6666 4.33334 13.189 4.33334 13.8333C4.33334 14.4776 4.85568 15 5.50001 15Z" fill="white"/>
<path d="M3.22668 2.62671L3.09334 4.26004C3.06668 4.57337 3.31334 4.83337 3.62668 4.83337H13.8333C14.1133 4.83337 14.3467 4.62004 14.3667 4.34004C14.4533 3.16004 13.5533 2.20004 12.3733 2.20004H4.18001C4.11334 1.90671 3.98001 1.62671 3.77334 1.39337C3.44001 1.04004 2.97334 0.833374 2.49334 0.833374H1.33334C1.06001 0.833374 0.833344 1.06004 0.833344 1.33337C0.833344 1.60671 1.06001 1.83337 1.33334 1.83337H2.49334C2.70001 1.83337 2.89334 1.92004 3.03334 2.06671C3.17334 2.22004 3.24001 2.42004 3.22668 2.62671Z" fill="white"/>
<path d="M13.6733 5.83337H3.44666C3.16666 5.83337 2.93999 6.04671 2.91333 6.32004L2.67333 9.22004C2.57999 10.36 3.47333 11.3334 4.61333 11.3334H12.0267C13.0267 11.3334 13.9067 10.5134 13.98 9.51337L14.2 6.40004C14.2267 6.09337 13.9867 5.83337 13.6733 5.83337Z" fill="white"/>
</svg>
