<svg width="16" height="16" viewBox="0 0 16 16" fill="none" xmlns="http://www.w3.org/2000/svg">
<path d="M13.8867 5.34005L9.52002 1.84672C8.66668 1.16672 7.33335 1.16005 6.48668 1.84005L2.12002 5.34005C1.49335 5.84005 1.11335 6.84005 1.24668 7.62672L2.08668 12.6534C2.28002 13.7801 3.32668 14.6667 4.46668 14.6667H11.5333C12.66 14.6667 13.7267 13.7601 13.92 12.6467L14.76 7.62005C14.88 6.84005 14.5 5.84005 13.8867 5.34005ZM8.50002 12.0001C8.50002 12.2734 8.27335 12.5001 8.00002 12.5001C7.72668 12.5001 7.50002 12.2734 7.50002 12.0001V10.0001C7.50002 9.72672 7.72668 9.50005 8.00002 9.50005C8.27335 9.50005 8.50002 9.72672 8.50002 10.0001V12.0001Z" fill="white"/>
</svg>
